<svg xmlns="http://www.w3.org/2000/svg" viewBox="0 0 92.69 92.69"><defs><style>.cls-1{fill:#ed1c24;}.cls-2{fill:#fff;}</style></defs><g id="Layer_2" data-name="Layer 2"><g id="Layer_1-2" data-name="Layer 1"><path class="cls-1" d="M71.31,7.29A45.91,45.91,0,0,0,50.89.22c-.52,0-1-.09-1.57-.12-1-.07-2-.1-3-.1A46.27,46.27,0,0,0,16.75,10.67c-.5.41-1,.84-1.48,1.27A46.31,46.31,0,0,0,0,46.34a47,47,0,0,0,1,9.48c.14.67.29,1.33.46,2A46.37,46.37,0,0,0,17.88,82.92a44.11,44.11,0,0,0,5,3.41c.27.18.56.34.85.5A46.33,46.33,0,0,0,89.89,62.22,46.37,46.37,0,0,0,71.31,7.29Z"/><path class="cls-2" d="M76.07,68.6A37.11,37.11,0,0,1,32.4,80.77c-.64-.25-1.28-.52-1.89-.82A37.15,37.15,0,0,1,22,18.32a45.73,45.73,0,0,1,6.08,9A26.36,26.36,0,0,0,22.8,58.26h0a26,26,0,0,0,4.93,6.8h0c.56.56,1.13,1.09,1.74,1.59a25.91,25.91,0,0,0,6.72,4.06,24.8,24.8,0,0,0,4.87,1.5,26,26,0,0,0,5.26.52A26.37,26.37,0,0,0,65.78,64.2,45.85,45.85,0,0,0,76.07,68.6Z"/><path class="cls-2" d="M83.49,46.34a36.82,36.82,0,0,1-2.75,14A45.3,45.3,0,0,1,70.9,56a26.06,26.06,0,0,0,1.83-9.66A26.33,26.33,0,0,0,70,34.56a46,46,0,0,1-8.31,14.27,47.09,47.09,0,0,1-6.85,6.54,46.49,46.49,0,0,1-15.91,8,45.55,45.55,0,0,0,1.62-11.2c0-.35,0-.69,0-1a46.12,46.12,0,0,0-8.6-26.91,45.77,45.77,0,0,0-7.31-8,36.88,36.88,0,0,1,12-5.72A46.18,46.18,0,0,1,43,18.15s0,0,0,0c.42.61.82,1.24,1.2,1.88a46.08,46.08,0,0,1,6.56,23.78v.12a45.87,45.87,0,0,0,3.67-4.45,46.07,46.07,0,0,0,7.1-14.7,45.68,45.68,0,0,0,1.69-11.53A37.22,37.22,0,0,1,83.49,46.34Z"/></g></g></svg>